<svg width="178" height="123" viewBox="0 0 178 123" fill="none" xmlns="http://www.w3.org/2000/svg">
<path d="M12.5437 122.809C13.2663 123.214 14.1805 122.956 14.5855 122.233L21.1856 110.457C21.5906 109.734 21.3331 108.82 20.6104 108.415C19.8877 108.01 18.9736 108.267 18.5686 108.99L12.7018 119.458L2.23371 113.591C1.51104 113.186 0.596869 113.444 0.191855 114.167C-0.213159 114.889 0.0443544 115.803 0.767027 116.208L12.5437 122.809ZM14.7208 121.093C13.2468 115.861 14.7419 106.161 25.4136 94.9465C36.0672 83.7509 55.7639 71.1882 90.2239 60.4319L89.3301 57.5681C54.5901 68.4118 34.3701 81.1824 23.2404 92.8785C12.1288 104.555 9.97385 115.306 11.8332 121.907L14.7208 121.093ZM90.2239 60.4319C124.946 49.5938 146.763 37.4335 159.932 26.5565C173.03 15.7387 177.777 6.00587 177.777 1.64509e-05L174.777 -1.64509e-05C174.777 4.6608 170.875 13.628 158.022 24.2435C145.241 34.7998 123.808 46.8062 89.3301 57.5681L90.2239 60.4319Z" fill="#FF6D6D"/>
</svg>
