<svg width="330" height="508" viewBox="0 0 330 508" fill="none" xmlns="http://www.w3.org/2000/svg">
<mask id="mask0_5_2460" style="mask-type:alpha" maskUnits="userSpaceOnUse" x="0" y="0" width="330" height="508">
<rect y="508" width="508" height="330" rx="165" transform="rotate(-90 0 508)" fill="url(#paint0_linear_5_2460)"/>
</mask>
<g mask="url(#mask0_5_2460)">
<path d="M228.174 296.478L216.923 305C214.922 302.387 167.211 241.436 97.3499 293.064L88.9705 281.693C112.344 264.437 133.693 258.151 152.405 258.151C198.54 258.292 227.703 295.96 228.174 296.478Z" fill="white"/>
<path d="M63.4573 137.921C56.047 132.092 47.4882 127.896 38.3423 125.608L35 139.333C41.2536 140.885 47.1561 143.609 52.3945 147.361C53.9772 148.45 55.5014 149.621 56.9609 150.869C71.5779 163.205 80.4988 181.286 84.1943 190.514C70.1224 197.189 56.8228 205.383 44.5328 214.951L53.1242 226.157C90.9967 197.13 129.905 185.053 168.837 190.302C237.097 199.507 283.278 259.446 283.725 260.058L289.351 255.797L295 251.536C293.258 249.182 256.586 201.461 198.118 182.557C207.533 165.654 235.943 123.395 291.563 105.15L287.162 91.7311C242.891 106.433 205.986 137.629 184.113 178.837C179.805 177.872 175.357 177.048 170.837 176.483C164.261 175.591 157.632 175.143 150.995 175.141C144.809 175.142 138.629 175.543 132.494 176.342C132.944 169.092 132.091 161.82 129.976 154.871C144.339 152.233 158.084 146.94 170.508 139.263C220.102 108.658 232.036 50.179 232.507 47.7306L218.643 44.9999C218.643 45.5413 207.298 99.9474 162.952 127.398C151.117 134.626 137.963 139.427 124.256 141.523C118.938 132.291 111.955 124.124 103.66 117.439C176.157 108.705 186.89 48.1308 186.984 47.4716L173.05 45.1174C172.626 47.6129 161.658 106.327 81.252 104.208L46.6277 103.267L78.1215 117.698C90.1674 123.581 100.652 132.229 108.721 142.936C93.4754 143.327 78.2477 141.64 63.4573 137.921ZM115.9 156.613C118.332 163.705 119.09 171.263 118.112 178.696C111.027 180.326 104.059 182.434 97.2578 185.005C92.9723 174.495 87.3643 164.575 80.5694 155.483C92.2688 157.158 104.117 157.537 115.9 156.613Z" fill="white"/>
<path d="M262.424 279.103L256.563 283.034L250.702 286.989C250.396 286.518 217.749 239.057 166.413 231.43C135.484 226.839 103.755 237.503 72.0961 263.117L63.1987 252.123C92.6918 228.275 122.561 216.269 152.243 216.269C157.758 216.262 163.266 216.671 168.719 217.493C226.105 226.109 260.964 276.937 262.424 279.103Z" fill="white"/>
</g>
<defs>
<linearGradient id="paint0_linear_5_2460" x1="-16.5" y1="673.632" x2="535.5" y2="673.632" gradientUnits="userSpaceOnUse">
<stop stop-color="#2C18E5"/>
<stop offset="0.46875" stop-color="#5442F4"/>
<stop offset="1" stop-color="#5442F5"/>
</linearGradient>
</defs>
</svg>
