<svg width="265" height="441" viewBox="0 0 265 441" fill="none" xmlns="http://www.w3.org/2000/svg">
<rect y="441" width="441" height="265" rx="132.5" transform="rotate(-90 0 441)" fill="black"/>
<rect x="86" y="69" width="94" height="303" rx="47" stroke="url(#paint0_linear_5_2449)" stroke-width="6"/>
<circle cx="133" cy="116" r="50" fill="url(#paint1_linear_5_2449)"/>
<path d="M124.132 97.4953V89.7129H129.309V97.4529H132.226V89.7186H137.426V97.5321C138.191 97.6468 138.918 97.7478 139.647 97.8763C141.712 98.256 143.676 98.8848 145.507 99.9415C150.955 103.071 150.259 110.164 146.196 113.264L145.579 113.738C146.093 113.961 146.574 114.13 147.017 114.369C150.209 116.098 151.837 118.777 151.85 122.417C151.865 123.873 151.639 125.321 151.181 126.703C150.006 130.187 147.462 132.146 144.022 133.093C142.127 133.614 140.186 133.757 138.23 133.772H137.497V141.696H132.432V133.813H129.485V141.693H124.292V133.8H114.881V128.304H118.014C119.917 128.304 120.405 127.817 120.406 125.894C120.406 118.879 120.406 111.862 120.406 104.845C120.406 103.404 119.967 102.913 118.515 102.856C117.331 102.81 116.144 102.841 114.957 102.837H114.361V97.5011L124.132 97.4953ZM129.342 127.711C129.406 127.743 129.44 127.775 129.473 127.775C131.973 127.718 134.48 127.747 136.97 127.565C138.577 127.45 140.043 126.776 141.088 125.444C143.283 122.65 142.331 119.342 138.96 118.296C137.828 117.943 136.607 117.787 135.418 117.729C133.568 117.636 131.711 117.702 129.856 117.705C129.691 117.705 129.526 117.727 129.342 117.74V127.711ZM129.342 112.35C131.416 112.35 133.423 112.415 135.425 112.333C137.596 112.242 139.424 110.416 139.653 108.27C139.914 105.84 138.9 104.348 136.471 103.627C134.139 102.938 131.748 103.214 129.343 103.154L129.342 112.35Z" fill="black"/>
<circle cx="132" cy="325" r="50" fill="#5846FB"/>
<path d="M149.283 346.959C147.082 346.959 145.148 346.933 143.216 346.973C142.57 346.985 142.358 346.57 142.088 346.143L132.78 331.465C132.082 330.375 132.082 330.38 131.425 331.432C128.349 336.295 125.254 341.144 122.212 346.028C121.761 346.75 121.282 347.022 120.449 346.98C119.017 346.905 117.582 346.98 116.151 346.95C115.829 346.95 115.39 347.144 115.22 346.769C115.078 346.471 115.431 346.218 115.59 345.965C118.165 341.892 120.744 337.82 123.327 333.75C123.469 333.53 123.597 333.3 123.732 333.073C123.371 332.766 123.013 332.892 122.687 332.892C119.164 332.88 115.639 332.855 112.115 332.906C111.226 332.92 110.952 332.651 111.029 331.784C111.108 330.812 111.108 329.835 111.029 328.863C110.938 327.816 111.245 327.483 112.346 327.492C119.28 327.546 126.213 327.518 133.147 327.518C139.43 327.518 145.697 327.535 151.971 327.502C152.846 327.502 153.237 327.67 153.158 328.643C153.074 329.693 153.074 330.748 153.158 331.798C153.227 332.716 152.864 332.897 152.029 332.888C148.622 332.843 145.213 332.869 141.804 332.869H140.394L149.283 346.959Z" fill="white"/>
<path d="M149.419 303.015L140.577 316.998H148.221C149.578 316.998 150.932 317.028 152.286 316.983C152.952 316.962 153.164 317.197 153.14 317.853C153.096 319.025 153.08 320.197 153.14 321.368C153.187 322.205 152.88 322.409 152.086 322.402C147.709 322.367 143.334 322.386 138.959 322.386C130.054 322.386 121.148 322.372 112.245 322.407C111.3 322.407 110.928 322.203 111.011 321.197C111.089 320.148 111.089 319.094 111.011 318.045C110.963 317.237 111.212 316.979 112.038 316.988C115.638 317.03 119.24 317.007 122.84 317.005C123.026 317.005 123.212 316.983 123.619 316.96L114.805 303.034C117.071 303.034 119.133 303.034 121.197 303.034C121.662 303.034 121.779 303.503 121.977 303.814C125.134 308.814 128.288 313.808 131.441 318.795C131.622 319.081 131.825 319.353 132.111 319.768C133.481 317.614 134.794 315.563 136.097 313.508C138.133 310.292 140.179 307.079 142.187 303.843C142.555 303.25 142.943 302.98 143.662 303.001C145.512 303.05 147.358 303.015 149.419 303.015Z" fill="white"/>
<defs>
<linearGradient id="paint0_linear_5_2449" x1="133" y1="66" x2="133" y2="375" gradientUnits="userSpaceOnUse">
<stop stop-color="#FFC250"/>
<stop offset="0.3125" stop-color="#412EED"/>
<stop offset="0.552083" stop-color="#FFC250"/>
<stop offset="0.958333" stop-color="#4330ED"/>
</linearGradient>
<linearGradient id="paint1_linear_5_2449" x1="150.5" y1="77.5" x2="133" y2="153" gradientUnits="userSpaceOnUse">
<stop stop-color="#FFCE31"/>
<stop offset="0.515625" stop-color="#FFCF5A"/>
<stop offset="1" stop-color="#FCA400"/>
</linearGradient>
</defs>
</svg>
