<svg width="305" height="320" viewBox="0 0 305 320" fill="none" xmlns="http://www.w3.org/2000/svg">
<path fill-rule="evenodd" clip-rule="evenodd" d="M152.425 0C127.417 0 107.085 8.44811 89.352 17.6351C83.9934 20.411 79.0155 23.1571 74.2588 25.7812C62.6198 32.2018 52.3034 37.8926 40.9751 41.507C34.3216 43.6299 28.4278 45.5102 24.249 47.1478C20.3158 48.689 15.6414 50.8011 12.3248 54.487C9.3456 57.798 7.81511 61.5151 6.80034 65.0707C5.87913 68.2983 5.09164 72.6678 4.33629 76.8599C-14.0781 178.986 26.1884 275.738 124.519 313.385C134.184 317.086 141.303 319.812 152.474 319.812C163.647 319.812 170.764 317.086 180.428 313.385C278.757 275.736 318.983 178.982 300.563 76.8591C299.808 72.6666 299.019 68.296 298.099 65.0683C297.083 61.5124 295.552 57.7949 292.573 54.4838C289.255 50.798 284.582 48.6865 280.647 47.1457C276.469 45.5087 270.575 43.6294 263.922 41.5078C252.589 37.8932 242.264 32.2012 230.615 25.7797C225.857 23.1562 220.875 20.41 215.517 17.6349C197.774 8.44826 177.434 0 152.425 0ZM115.252 110.633V126.425C114.135 126.764 113.024 127.171 111.921 127.66C102.696 131.754 95.6011 139.493 91.953 148.928C90.3778 153.004 89.7722 157.189 89.4912 161.601C89.2208 165.847 89.2208 171.019 89.2209 177.219V177.921C89.2208 184.12 89.2208 189.293 89.4912 193.54C89.7722 197.952 90.3778 202.138 91.953 206.212C95.6011 215.649 102.696 223.387 111.921 227.48C115.972 229.279 120.12 229.957 124.368 230.268C128.408 230.562 133.303 230.562 139.036 230.562H165.844C171.578 230.562 176.472 230.562 180.512 230.268C184.76 229.957 188.907 229.279 192.958 227.48C202.183 223.387 209.279 215.649 212.926 206.212C214.501 202.138 215.107 197.952 215.388 193.54C215.658 189.293 215.658 184.12 215.658 177.921V177.219C215.658 171.019 215.658 165.847 215.388 161.601C215.107 157.189 214.501 153.004 212.926 148.928C209.279 139.493 202.183 131.754 192.958 127.66C191.855 127.171 190.744 126.764 189.627 126.425V110.633C189.627 90.2292 172.592 74.375 152.44 74.375C132.287 74.375 115.252 90.2292 115.252 110.633ZM152.44 96.6875C143.839 96.6875 137.565 103.31 137.565 110.633V124.578L139.036 124.578H165.844L167.315 124.578V110.633C167.315 103.31 161.04 96.6875 152.44 96.6875Z" fill="#0084FF"/>
</svg>
