<svg preserveAspectRatio="none" width="100%" height="100%" overflow="visible" style="display: block;" viewBox="0 0 925 343.728" fill="none" xmlns="http://www.w3.org/2000/svg">
<g id="654a7edb7629552f56908ee3_Line%20Graph%20Up%20Right.svg" clip-path="url(#clip0_0_18)">
<path id="Vector" d="M6.74417 225.588C5.99211 226.095 5.79323 227.115 6.29997 227.867C6.80671 228.62 7.82717 228.819 8.57924 228.312L6.74417 225.588ZM218.934 84.5962L219.859 83.2395C219.304 82.861 218.574 82.859 218.017 83.2345L218.934 84.5962ZM409.424 214.474L408.499 215.83C409.122 216.256 409.955 216.202 410.517 215.698L409.424 214.474ZM521.78 114.069V112.427C521.377 112.427 520.987 112.576 520.686 112.845L521.78 114.069ZM703.935 114.069V115.711C704.225 115.711 704.511 115.634 704.761 115.488L703.935 114.069ZM899.709 0L880.749 0.0753158L890.293 16.4577L899.709 0ZM8.57924 228.312L219.851 85.958L218.017 83.2345L6.74417 225.588L8.57924 228.312ZM218.009 85.9529L408.499 215.83L410.349 213.118L219.859 83.2395L218.009 85.9529ZM410.517 215.698L522.875 115.293L520.686 112.845L408.329 213.249L410.517 215.698ZM521.78 115.711H703.935V112.427H521.78V115.711ZM704.761 115.488L887.767 8.85859L886.113 6.02108L703.108 112.651L704.761 115.488Z" fill="url(#paint0_linear_0_18)"/>
<path id="Vector_2" d="M6.60993 333.564C5.91348 334.144 5.81973 335.18 6.40054 335.876C6.98135 336.572 8.01678 336.666 8.71324 336.086L6.60993 333.564ZM250.97 131.916L251.336 130.316C250.837 130.202 250.313 130.327 249.919 130.655L250.97 131.916ZM407.505 167.662L407.139 169.262C407.582 169.364 408.049 169.276 408.425 169.021L407.505 167.662ZM577.651 52.5405L578.48 51.1232C577.934 50.804 577.255 50.8263 576.73 51.1804L577.651 52.5405ZM737.588 146.11L736.759 147.526C737.121 147.739 737.551 147.804 737.959 147.709L737.588 146.11ZM916.241 104.637L898.103 99.1158L902.39 117.585L916.241 104.637ZM8.71324 336.086L252.022 133.177L249.919 130.655L6.60993 333.564L8.71324 336.086ZM250.605 133.518L407.139 169.262L407.87 166.061L251.336 130.316L250.605 133.518ZM408.425 169.021L578.57 53.9004L576.73 51.1804L406.585 166.302L408.425 169.021ZM576.821 53.9577L736.759 147.526L738.417 144.692L578.48 51.1232L576.821 53.9577ZM737.959 147.709L902.218 109.578L901.474 106.38L737.217 144.511L737.959 147.709Z" fill="url(#paint1_linear_0_18)" fill-opacity="0.5"/>
<path id="Vector_3" d="M7.7797 281.212C6.87518 281.146 6.08907 281.827 6.02385 282.731C5.95864 283.636 6.63903 284.423 7.54354 284.487L7.7797 281.212ZM252.321 300.489L252.203 302.127C252.42 302.142 252.638 302.115 252.844 302.046L252.321 300.489ZM401.587 250.431L401.678 248.791C401.47 248.78 401.262 248.807 401.065 248.874L401.587 250.431ZM605.354 261.628L605.264 263.268C605.495 263.28 605.727 263.244 605.944 263.161L605.354 261.628ZM742.763 208.749L743.352 210.281C743.605 210.184 743.828 210.026 744.005 209.823L742.763 208.749ZM866.981 65.0059L849.072 71.2311L863.418 83.6284L866.981 65.0059ZM7.54354 284.487L252.203 302.127L252.44 298.852L7.7797 281.212L7.54354 284.487ZM252.844 302.046L402.109 251.987L401.065 248.874L251.799 298.933L252.844 302.046ZM401.497 252.07L605.264 263.268L605.444 259.988L401.678 248.791L401.497 252.07ZM605.944 263.161L743.352 210.281L742.173 207.216L604.764 260.096L605.944 263.161ZM744.005 209.823L858.561 77.261L856.076 75.1136L741.521 207.675L744.005 209.823Z" fill="url(#paint2_linear_0_18)" fill-opacity="0.3"/>
<path id="Vector_4" d="M0 41.372H924.432" stroke="var(--stroke-0, #C0D6EA)" stroke-opacity="0.15" stroke-width="1.09467"/>
<path id="Vector_5" d="M0 147.124H924.432" stroke="var(--stroke-0, #C0D6EA)" stroke-opacity="0.15" stroke-width="1.09467"/>
<path id="Vector_6" d="M0 242.185H924.432" stroke="var(--stroke-0, #C0D6EA)" stroke-opacity="0.15" stroke-width="1.09467"/>
<path id="Vector_7" d="M0 343.183H924.432" stroke="var(--stroke-0, #C0D6EA)" stroke-opacity="0.15" stroke-width="1.09467"/>
</g>
<defs>
<linearGradient id="paint0_linear_0_18" x1="453.686" y1="19.6056" x2="453.686" y2="226.95" gradientUnits="userSpaceOnUse">
<stop stop-color="#1CE8AB"/>
<stop offset="1" stop-color="#70A5FE"/>
</linearGradient>
<linearGradient id="paint1_linear_0_18" x1="451.743" y1="53.0661" x2="448.168" y2="334.897" gradientUnits="userSpaceOnUse">
<stop stop-color="#1CE8AB"/>
<stop offset="1" stop-color="#70A5FE"/>
</linearGradient>
<linearGradient id="paint2_linear_0_18" x1="440.725" y1="63.4632" x2="441.429" y2="335.336" gradientUnits="userSpaceOnUse">
<stop stop-color="#1CE8AB"/>
<stop offset="1" stop-color="#70A5FE"/>
</linearGradient>
<clipPath id="clip0_0_18">
<rect width="925" height="343.728" fill="white"/>
</clipPath>
</defs>
</svg>
