<svg preserveAspectRatio="none" width="100%" height="100%" overflow="visible" style="display: block;" viewBox="0 0 28 28" fill="none" xmlns="http://www.w3.org/2000/svg">
<g id="631e7b4453eb6838b3dbaa5a_gram.svg" clip-path="url(#clip0_0_72)">
<path id="Vector" d="M13.7488 27.2799C21.2213 27.2799 27.2789 21.2223 27.2789 13.7498C27.2789 6.27736 21.2213 0.219727 13.7488 0.219727C6.27638 0.219727 0.21875 6.27736 0.21875 13.7498C0.21875 21.2223 6.27638 27.2799 13.7488 27.2799Z" fill="var(--fill-0, white)" stroke="var(--stroke-0, black)" stroke-width="0.439196"/>
<path id="Vector_2" d="M13.78 8.35171C15.6816 8.35171 15.9065 8.35853 16.6563 8.39261C17.3515 8.42669 17.7264 8.54256 17.9786 8.63798C18.3126 8.76748 18.5443 8.92425 18.7965 9.16962C19.0487 9.42181 19.1986 9.65356 19.3281 9.98754C19.4236 10.2397 19.5394 10.6146 19.5735 11.3098C19.6076 12.0596 19.6144 12.2845 19.6144 14.1862C19.6144 16.0878 19.6076 16.3127 19.5735 17.0625C19.5394 17.7577 19.4236 18.1326 19.3281 18.3848C19.1986 18.7188 19.0419 18.9505 18.7965 19.2027C18.5511 19.4481 18.3126 19.6048 17.9786 19.7343C17.7264 19.8298 17.3515 19.9456 16.6563 19.9797C15.9065 20.0138 15.6816 20.0206 13.78 20.0206C11.8783 20.0206 11.6534 20.0138 10.9036 19.9797C10.2084 19.9456 9.83352 19.8298 9.58133 19.7343C9.24735 19.6048 9.0156 19.4481 8.76341 19.2027C8.51122 18.9505 8.36127 18.7188 8.23177 18.3848C8.13635 18.1326 8.02048 17.7577 7.9864 17.0625C7.95232 16.3127 7.9455 16.0878 7.9455 14.1862C7.9455 12.2845 7.95232 12.0596 7.9864 11.3098C8.02048 10.6146 8.13635 10.2397 8.23177 9.98754C8.36127 9.65356 8.51804 9.42181 8.76341 9.16962C9.0156 8.91743 9.24735 8.76748 9.58133 8.63798C9.83352 8.54256 10.2084 8.42669 10.9036 8.39261C11.6534 8.35853 11.8783 8.35171 13.78 8.35171ZM13.78 7.07031C11.851 7.07031 11.6057 7.07713 10.8491 7.11121C10.0925 7.14529 9.57451 7.26798 9.12466 7.44519C8.65436 7.62922 8.25903 7.86778 7.86371 8.2631C7.46838 8.65843 7.22301 9.05375 7.0458 9.52405C6.86858 9.97391 6.75271 10.4919 6.71863 11.2485C6.68455 12.0051 6.67773 12.2504 6.67773 14.1793C6.67773 16.1083 6.68455 16.3536 6.71863 17.1102C6.75271 17.8668 6.8754 18.3848 7.0458 18.8346C7.22983 19.3049 7.46838 19.7003 7.86371 20.0956C8.25903 20.4909 8.65436 20.7363 9.12466 20.9135C9.57451 21.0907 10.0925 21.2066 10.8491 21.2475C11.6057 21.2816 11.851 21.2884 13.78 21.2884C15.7089 21.2884 15.9542 21.2816 16.7108 21.2475C17.4674 21.2134 17.9854 21.0907 18.4352 20.9135C18.9055 20.7295 19.3009 20.4909 19.6962 20.0956C20.0915 19.7003 20.3369 19.3049 20.5141 18.8346C20.6913 18.3848 20.8072 17.8668 20.8481 17.1102C20.8822 16.3536 20.889 16.1083 20.889 14.1793C20.889 12.2504 20.8822 12.0051 20.8481 11.2485C20.814 10.4919 20.6913 9.97391 20.5141 9.52405C20.3301 9.05375 20.0915 8.65843 19.6962 8.2631C19.3009 7.86778 18.9055 7.6224 18.4352 7.44519C17.9854 7.26798 17.4674 7.1521 16.7108 7.11121C15.9542 7.07713 15.7089 7.07031 13.78 7.07031Z" fill="var(--fill-0, black)"/>
<path id="Vector_3" d="M13.7803 10.5332C11.7628 10.5332 10.127 12.169 10.127 14.1866C10.127 16.2041 11.7628 17.8399 13.7803 17.8399C15.7978 17.8399 17.4336 16.2041 17.4336 14.1866C17.4336 12.169 15.7978 10.5332 13.7803 10.5332ZM13.7803 16.5585C12.4716 16.5585 11.4084 15.4952 11.4084 14.1866C11.4084 12.8779 12.4716 11.8146 13.7803 11.8146C15.089 11.8146 16.1523 12.8779 16.1523 14.1866C16.1523 15.4952 15.089 16.5585 13.7803 16.5585Z" fill="var(--fill-0, black)"/>
<path id="Vector_4" d="M18.4345 10.3832C18.4345 10.8535 18.0528 11.2352 17.5825 11.2352C17.1122 11.2352 16.7305 10.8535 16.7305 10.3832C16.7305 9.91294 17.1122 9.53125 17.5825 9.53125C18.0528 9.53125 18.4345 9.91294 18.4345 10.3832Z" fill="var(--fill-0, black)"/>
</g>
<defs>
<clipPath id="clip0_0_72">
<rect width="28" height="28" fill="white"/>
</clipPath>
</defs>
</svg>
