<svg preserveAspectRatio="none" width="100%" height="100%" overflow="visible" style="display: block;" viewBox="0 0 28 28" fill="none" xmlns="http://www.w3.org/2000/svg">
<g id="63af274c100b8477b153e796_Twitter.svg" clip-path="url(#clip0_0_89)">
<path id="Vector" d="M13.75 27.5C21.3439 27.5 27.5 21.3439 27.5 13.75C27.5 6.15608 21.3439 0 13.75 0C6.15608 0 0 6.15608 0 13.75C0 21.3439 6.15608 27.5 13.75 27.5Z" fill="var(--fill-0, white)"/>
<path id="Vector_2" d="M11.4028 19.3779C16.6861 19.3779 19.5754 15.0009 19.5754 11.2054C19.5754 11.0811 19.5728 10.9573 19.5672 10.8341C20.1281 10.4287 20.6155 9.92272 21 9.34675C20.4853 9.57554 19.9315 9.72954 19.3505 9.79897C19.9435 9.44339 20.3988 8.88086 20.6136 8.21028C20.0586 8.53928 19.444 8.7784 18.7897 8.9075C18.2655 8.3492 17.5193 8 16.693 8C15.1068 8 13.8205 9.28634 13.8205 10.8719C13.8205 11.0973 13.8458 11.3165 13.895 11.5269C11.5078 11.4067 9.39096 10.2638 7.97425 8.52584C7.72757 8.9503 7.58531 9.44339 7.58531 9.96951C7.58531 10.966 8.09241 11.8458 8.86353 12.3604C8.39228 12.3459 7.94959 12.2165 7.56267 12.0012C7.56225 12.0132 7.56225 12.025 7.56225 12.0379C7.56225 13.4289 8.55233 14.5903 9.86663 14.8535C9.62529 14.9193 9.37132 14.9546 9.10923 14.9546C8.92446 14.9546 8.74438 14.9364 8.56939 14.9028C8.93507 16.0441 9.99544 16.8746 11.2526 16.8978C10.2695 17.6683 9.0311 18.1273 7.68514 18.1273C7.45358 18.1273 7.22484 18.1141 7 18.0875C8.27121 18.9023 9.78045 19.3779 11.4028 19.3779Z" fill="var(--fill-0, black)"/>
</g>
<defs>
<clipPath id="clip0_0_89">
<rect width="28" height="28" fill="white"/>
</clipPath>
</defs>
</svg>
