<svg width="44" height="41" viewBox="0 0 44 41" fill="none" xmlns="http://www.w3.org/2000/svg">
<g clip-path="url(#clip0_1_8968)">
<path fill-rule="evenodd" clip-rule="evenodd" d="M4.11637 27.9789C1.84598 26.2021 0.710793 25.3137 0.285467 24.2892L0.00488281 22.8938V17.1771H1.43632V20.0212C2.06276 19.4338 2.9362 18.7501 4.11637 17.8265L15.4673 8.94328C17.7376 7.16645 18.8728 6.27805 20.1818 5.94518C21.3333 5.65239 22.5736 5.65239 23.725 5.94518C25.0341 6.27805 26.1693 7.16645 28.4397 8.94328L39.7905 17.8265C40.9707 18.7501 41.8442 19.4338 42.4706 20.0212V17.1771H43.9021V22.9027C43.9021 23.3707 43.8085 23.8386 43.6214 24.2892C43.1961 25.3137 42.0609 26.2021 39.7905 27.9789L28.4397 36.8622C26.1694 38.639 25.0341 39.5274 23.725 39.8603C22.5736 40.1531 21.3333 40.1531 20.1818 39.8603C18.8728 39.5274 17.7376 38.639 15.4673 36.8622L4.11637 27.9789Z" fill="#DBDBDB"/>
<path d="M4.11639 22.2533C1.846 20.4765 0.710804 19.5881 0.285478 18.5636C-0.0886489 17.6625 -0.0886489 16.6918 0.285478 15.7906C0.710804 14.7663 1.846 13.8778 4.11639 12.1009L15.4673 3.21769C17.7376 1.44088 18.8728 0.552461 20.1818 0.219596C21.3333 -0.0731988 22.5736 -0.0731988 23.7251 0.219596C25.0341 0.552461 26.1693 1.44088 28.4397 3.2177L39.7905 12.1009C42.0609 13.8778 43.1961 14.7663 43.6214 15.7906C43.9955 16.6918 43.9955 17.6625 43.6214 18.5636C43.1961 19.5881 42.0609 20.4765 39.7905 22.2533L28.4397 31.1366C26.1693 32.9134 25.0341 33.8018 23.7251 34.1347C22.5736 34.4275 21.3333 34.4275 20.1818 34.1347C18.8728 33.8018 17.7376 32.9134 15.4673 31.1366L4.11639 22.2533Z" fill="white"/>
<path d="M17.089 11.2548C15.9537 10.3664 15.3862 9.92222 15.1735 9.40999C14.9865 8.95942 14.9865 8.47408 15.1735 8.02352C15.3862 7.51129 15.9537 7.06708 17.089 6.17867L18.7105 4.90963C19.8457 4.02121 20.4133 3.57701 21.0678 3.41058C21.6435 3.26418 22.2637 3.26418 22.8394 3.41058C23.494 3.57701 24.0615 4.02121 25.1967 4.90963L26.8183 6.17867C27.9535 7.06708 28.5211 7.51129 28.7337 8.02352C28.9208 8.47408 28.9208 8.95942 28.7337 9.40999C28.5211 9.92222 27.9535 10.3664 26.8183 11.2548L25.1967 12.5239C24.0615 13.4123 23.494 13.8565 22.8394 14.0229C22.2637 14.1693 21.6435 14.1693 21.0678 14.0229C20.4133 13.8565 19.8457 13.4123 18.7105 12.5239L17.089 11.2548Z" fill="#FF8686"/>
<path d="M27.8994 19.7148C26.7643 18.8264 26.1967 18.3822 25.984 17.87C25.797 17.4194 25.797 16.934 25.984 16.4835C26.1967 15.9712 26.7643 15.527 27.8994 14.6386L29.521 13.3696C30.6563 12.4812 31.2238 12.037 31.8783 11.8706C32.4541 11.7241 33.0743 11.7241 33.6499 11.8706C34.3044 12.037 34.8721 12.4812 36.0072 13.3696L37.6288 14.6386C38.764 15.527 39.3316 15.9712 39.5442 16.4835C39.7313 16.934 39.7313 17.4194 39.5442 17.87C39.3316 18.3822 38.764 18.8264 37.6288 19.7148L36.0072 20.9838C34.8721 21.8722 34.3044 22.3164 33.6499 22.4829C33.0743 22.6293 32.4541 22.6293 31.8783 22.4829C31.2238 22.3164 30.6563 21.8722 29.521 20.9838L27.8994 19.7148Z" fill="#5AFF88"/>
<path d="M6.2784 19.7148C5.14321 18.8264 4.57562 18.3822 4.36295 17.87C4.17589 17.4194 4.17589 16.934 4.36295 16.4835C4.57562 15.9712 5.14321 15.527 6.2784 14.6386L7.89996 13.3696C9.03515 12.4812 9.60274 12.037 10.2573 11.8706C10.833 11.7241 11.4531 11.7241 12.0288 11.8706C12.6834 12.037 13.251 12.4812 14.3861 13.3696L26.8181 23.0989C27.9533 23.9873 28.5209 24.4315 28.7335 24.9437C28.9206 25.3943 28.9206 25.8796 28.7335 26.3302C28.5209 26.8424 27.9533 27.2866 26.8181 28.175L25.1965 29.4441C24.0613 30.3325 23.4938 30.7767 22.8392 30.9432C22.2635 31.0895 21.6433 31.0895 21.0676 30.9432C20.4131 30.7767 19.8455 30.3325 18.7103 29.4441L6.2784 19.7148Z" fill="#768CFF"/>
</g>
<defs>
<clipPath id="clip0_1_8968">
<rect width="43.9902" height="40.08" fill="white" transform="translate(0.00488281)"/>
</clipPath>
</defs>
</svg>
